<svg xmlns="http://www.w3.org/2000/svg" width="512" height="512" viewBox="0 0 168 168">
  <rect width="168" height="168" rx="24" fill="#121212"/>
  <path fill="#1DB954" d="M84 28C53.1 28 28 53.1 28 84s25.1 56 56 56 56-25.1 56-56S114.9 28 84 28zm25.7 80.8c-1 1.7-3.1 2.1-4.7 1.1-13-7.9-29.3-9.7-48.6-5.3-1.9.4-3.7-.7-4.1-2.6-.4-1.9.7-3.7 2.6-4.1 21.1-4.8 39.1-2.7 53.7 6.2 1.7 1 2.1 3.1 1.1 4.7zm6.9-15.2c-1.3 2-3.9 2.7-6 1.4-14.9-9.1-37.5-11.8-55.1-6.5-2.3.7-4.7-.6-5.4-2.9-.7-2.3.6-4.7 2.9-5.4 20.1-6.1 45-3.1 62.1 7.4 2 1.3 2.7 3.9 1.5 6zm.6-15.9c-17.8-10.6-47.3-11.5-64.3-6.4-2.7.8-5.6-.7-6.4-3.5-.8-2.7.7-5.6 3.5-6.4 19.5-5.9 52-4.8 72.5 7.4 2.5 1.5 3.3 4.7 1.8 7.1-1.5 2.5-4.7 3.3-7.1 1.8z"/>
</svg>
